<svg width="29" height="28" viewBox="0 0 29 28" fill="none" xmlns="http://www.w3.org/2000/svg">
<path d="M21.4219 6.29539C18.8509 4.46912 15.4883 3.69348 12.2034 4.16911C11.8286 4.2232 11.4591 4.29531 11.0948 4.3805C10.9903 4.40484 10.8858 4.43143 10.7812 4.45802C8.60985 5.02351 6.68116 6.13054 5.23807 7.63967C1.19697 11.8641 1.89209 18.1138 6.79059 21.5988C8.85171 23.0651 11.4406 23.8666 14.1126 23.8657C14.9637 23.866 15.8122 23.7851 16.6427 23.6245C16.9124 23.5723 17.1779 23.5087 17.4418 23.4402C19.6137 22.8753 21.5432 21.7687 22.9871 20.2599C27.0265 16.0309 26.3256 9.77886 21.4219 6.29539ZM6.43806 7.82672C6.67168 7.60947 6.91733 7.40439 7.16977 7.20968C7.1891 7.19481 7.20792 7.17858 7.22778 7.16461C7.4729 6.97936 7.729 6.80674 7.99136 6.64312C8.02534 6.62194 8.05826 6.59805 8.09276 6.57912C8.3499 6.42317 8.61469 6.27787 8.88718 6.14327C8.92951 6.12209 8.97185 6.0982 9.0147 6.07972C9.28511 5.94929 9.56172 5.82985 9.84467 5.7214L9.98526 5.66821C10.1645 5.60196 10.3511 5.54742 10.533 5.48792C9.5693 6.38903 8.83086 7.45149 8.36349 8.60917C7.69267 8.40291 7.04609 8.14228 6.43231 7.83078L6.43806 7.82672ZM5.76907 8.5294C6.48582 8.90665 7.24575 9.21911 8.03684 9.46194C7.60095 10.7757 7.36445 12.1328 7.33335 13.4991H3.68267C3.78799 11.7002 4.51459 9.96951 5.76907 8.5294ZM5.76907 19.3702C4.51466 17.9301 3.78805 16.1994 3.68267 14.4005H7.33335C7.36439 15.7668 7.60088 17.1238 8.03684 18.4376C7.24588 18.6806 6.48595 18.9931 5.76907 19.3702ZM9.98421 22.23C9.93979 22.2147 9.89432 22.198 9.84937 22.18C9.56505 22.0704 9.28596 21.9506 9.01314 21.8194C8.97237 21.8 8.93265 21.7793 8.89188 21.7594C8.61802 21.6242 8.3499 21.4773 8.09014 21.3191C8.05931 21.3002 8.029 21.2803 7.99816 21.261C7.73265 21.096 7.47551 20.9211 7.22621 20.7341C7.20949 20.721 7.19328 20.707 7.17395 20.6944C6.91628 20.497 6.6675 20.2887 6.43127 20.0697C7.04544 19.758 7.69241 19.4971 8.36349 19.2904C8.83119 20.4476 9.56982 21.5096 10.5335 22.4103C10.3495 22.3526 10.164 22.2981 9.98421 22.23ZM13.5899 22.9228C11.8359 22.6735 10.3067 21.1866 9.36331 19.0213C10.7411 18.6927 12.1608 18.5128 13.5899 18.4859V22.9228ZM13.5899 17.5853C12.0493 17.6127 10.5187 17.8075 9.03457 18.1649C8.63076 16.9394 8.41013 15.6743 8.37812 14.4005H13.5899V17.5853ZM13.5899 13.4991H8.37812C8.40994 12.2256 8.63036 10.9608 9.03404 9.73553C10.5176 10.0978 12.0485 10.2966 13.5899 10.3273V13.4991ZM13.5899 9.41462C12.1609 9.38723 10.7413 9.20711 9.3637 8.87837C10.3045 6.71535 11.8362 5.22831 13.5899 4.9777V9.41462ZM22.4561 8.5294C23.7105 9.96951 24.4371 11.7002 24.5425 13.4991H20.8918C20.8608 12.1328 20.6243 10.7757 20.1884 9.46194C20.9793 9.21895 21.7392 8.90643 22.4561 8.5294ZM18.2394 5.66911L18.3774 5.72004C18.6607 5.82912 18.9387 5.94856 19.2094 6.08062C19.2512 6.1009 19.2925 6.12209 19.3343 6.14282C19.6072 6.27804 19.8737 6.42362 20.1319 6.58047C20.1648 6.60031 20.1967 6.62194 20.2291 6.64222C20.4904 6.80629 20.7518 6.97981 20.9969 7.16596C21.0152 7.17993 21.0324 7.19481 21.0491 7.20878C21.3058 7.4053 21.5535 7.61173 21.7892 7.83123C21.1765 8.14223 20.5311 8.40269 19.8617 8.60917C19.3939 7.45172 18.6551 6.38959 17.6911 5.48882C17.8751 5.54652 18.0601 5.60105 18.2394 5.66911ZM14.6352 4.9768C16.3892 5.22605 17.9185 6.71299 18.8619 8.87826C17.4841 9.20689 16.0644 9.38673 14.6352 9.41371V4.9768ZM14.6352 10.3273C16.1767 10.2966 17.7075 10.0977 19.1911 9.73553C19.5948 10.9608 19.8152 12.2256 19.8471 13.4991H14.6352V10.3273ZM14.6352 14.4005H19.8471C19.8151 15.6745 19.5944 16.9397 19.1906 18.1654C17.7065 17.8076 16.1759 17.6129 14.6352 17.5858V14.4005ZM14.6352 22.9232V18.4859C16.0643 18.513 17.4841 18.6928 18.8619 19.0213V19.0218C17.9185 21.1852 16.3892 22.6726 14.6352 22.9232ZM21.785 20.0728C21.5509 20.291 21.3042 20.4965 21.0486 20.6917C21.0303 20.7061 21.0131 20.721 20.9964 20.7368C20.7497 20.9229 20.4925 21.0973 20.2286 21.261C20.1962 21.2812 20.1648 21.302 20.1319 21.3218C19.8737 21.4791 19.6066 21.6247 19.3338 21.7604C19.2925 21.7806 19.2512 21.8018 19.21 21.8216C18.9389 21.9524 18.6612 22.0725 18.3769 22.1822L18.2389 22.2345C18.0596 22.3008 17.873 22.3553 17.6906 22.4148C18.6553 21.5128 19.3943 20.4493 19.8617 19.2904C20.5334 19.4965 21.1809 19.7572 21.7955 20.0688L21.785 20.0728ZM22.4561 19.3702H22.454C21.7373 18.9929 20.9773 18.6805 20.1863 18.4376C20.6229 17.1239 20.8601 15.7669 20.8918 14.4005H24.5425C24.4372 16.1994 23.7106 17.9301 22.4561 19.3702Z" fill="#00AEFF"/>
<path d="M27.1895 13.9499C27.1814 20.1702 21.3337 25.211 14.1176 25.2179H7.01378L8.33927 24.0749L7.59992 23.4376L5.01221 25.6687L7.59992 27.8997L8.33927 27.2624L7.01378 26.1194H14.1176C21.911 26.112 28.2266 20.6679 28.2352 13.9499H27.1895Z" fill="#00AEFF"/>
<path d="M19.594 0L18.8545 0.637322L20.1803 1.78035H14.1209C6.32569 1.78779 0.00862941 7.2319 0 13.9499H1.04599C1.05403 7.72955 6.90314 2.68873 14.1209 2.6818H20.1803L18.8545 3.82483L19.594 4.46215L22.1823 2.23108L19.594 0Z" fill="#00AEFF"/>
</svg>
